# xmcd
#
# Track frame offsets:
#       150
#       14317
#       25451
#       45319
#       63876
#       79967
#       92805
#       113566
#       129643
#       141363
#       160771
#
# Disc length: 2314 seconds
#
# Revision: 2
# Processed by: cddbd v1.4PL0 Copyright (c) Steve Scherf et al.
# Submitted via: WhereIsIt 3.24
#
DISCID=8909080b
DTITLE=Paul Butterfield - The Paul Butterfield Blues Band
DYEAR=1900
DGENRE=
TTITLE0=Born in Chicago
TTITLE1=Shake Your Money-Maker
TTITLE2=Blues With A Feeling
TTITLE3=Thank You Mr Poobah
TTITLE4=I Got My Mojo Working
TTITLE5=Mellow Down Easy
TTITLE6=Screamin'
TTITLE7=Our Love Is Drifting
TTITLE8=Mystery Train
TTITLE9=Last Night
TTITLE10=Look Over Yonders Wall
EXTD=
EXTT0=
EXTT1=
EXTT2=
EXTT3=
EXTT4=
EXTT5=
EXTT6=
EXTT7=
EXTT8=
EXTT9=
EXTT10=
PLAYORDER=
